<?xml version="1.0" standalone="no"?>
<!DOCTYPE svg PUBLIC "-//W3C//DTD SVG 20010904//EN"
 "http://www.w3.org/TR/2001/REC-SVG-20010904/DTD/svg10.dtd">
<svg version="1.0" xmlns="http://www.w3.org/2000/svg"
 width="400.000000pt" height="400.000000pt" viewBox="0 0 400.000000 400.000000"
 preserveAspectRatio="xMidYMid meet">
<metadata>
Created by potrace 1.11, written by Peter Selinger 2001-2013
</metadata>
<g transform="translate(0.000000,400.000000) scale(0.100000,-0.100000)"
fill="#000000" stroke="none">
<path d="M3087 3966 c-75 -18 -139 -30 -142 -28 -3 3 -5 1 -5 -4 0 -5 -8 -10
-17 -11 -10 0 -49 -10 -88 -22 -38 -12 -80 -24 -93 -26 -39 -9 -324 -111 -417
-150 -191 -79 -524 -266 -562 -315 -7 -8 -13 -12 -13 -7 0 4 -12 -4 -27 -17
-16 -14 -39 -34 -53 -46 -86 -74 -157 -150 -206 -220 -34 -48 -84 -140 -84
-153 0 -13 -44 -101 -57 -115 -7 -7 -17 -11 -22 -8 -10 6 -83 17 -114 17 -9 0
-17 5 -17 10 0 6 -5 7 -10 4 -6 -4 -43 23 -82 59 -39 37 -73 64 -76 61 -3 -3
-11 0 -18 6 -14 12 -94 15 -132 6 -93 -24 -218 -124 -288 -232 -10 -17 -27
-39 -36 -49 -10 -11 -18 -25 -18 -30 -1 -16 -41 -59 -71 -78 -39 -24 -61 -81
-64 -162 l-2 -70 -42 -18 c-22 -9 -41 -20 -41 -24 0 -40 79 -116 135 -130 14
-3 25 -10 25 -14 0 -24 302 -35 400 -14 65 13 196 52 215 63 6 3 12 6 15 6 18
3 114 60 163 98 110 86 202 243 222 382 8 52 36 136 52 156 7 8 13 19 13 23 0
39 183 232 320 337 63 49 120 93 127 99 7 5 17 10 23 10 5 0 10 3 10 8 0 4 9
12 20 17 11 6 70 41 132 79 95 59 476 260 501 264 4 1 28 10 53 22 26 11 52
20 59 20 8 0 15 3 17 8 4 9 150 68 160 65 5 -2 8 2 8 8 0 6 7 9 15 6 8 -4 17
-3 19 2 3 4 73 32 155 61 233 84 200 108 -62 46z m-2118 -1086 c9 -4 37 -31
64 -58 41 -44 57 -53 117 -69 l70 -18 -29 -27 c-17 -16 -35 -28 -40 -28 -6 0
-11 -5 -11 -10 0 -6 -8 -14 -17 -18 -10 -4 -43 -20 -73 -37 -68 -36 -134 -61
-225 -85 -134 -36 -160 -44 -253 -75 l-93 -32 4 37 c3 29 16 49 60 94 32 31
57 63 57 71 0 8 5 15 10 15 6 0 10 7 10 15 0 8 4 15 10 15 5 0 9 4 7 8 -3 11
67 96 116 142 69 64 162 90 216 60z"/>
<path d="M2005 2370 c-3 -4 -21 -11 -40 -14 -19 -4 -35 -11 -35 -16 0 -6 -4
-10 -10 -10 -5 0 -31 -13 -57 -28 -64 -37 -167 -82 -201 -88 -15 -2 -40 -7
-57 -11 -16 -4 -32 -7 -35 -7 -3 -1 -27 -14 -54 -30 -55 -32 -106 -82 -144
-138 -20 -30 -33 -40 -66 -45 -23 -4 -49 -7 -58 -7 -10 1 -18 -2 -18 -6 0 -5
-11 -7 -25 -5 -14 1 -28 -1 -30 -5 -3 -4 -22 -11 -42 -15 -36 -6 -170 -47
-203 -62 -8 -3 -17 -7 -20 -8 -3 -1 -18 -7 -35 -14 -16 -7 -30 -11 -30 -9 0 1
-11 -5 -25 -15 -13 -9 -32 -17 -41 -17 -10 0 -19 -5 -21 -11 -2 -5 -10 -12
-18 -14 -37 -8 -60 -18 -60 -25 0 -4 -12 -11 -27 -15 -15 -3 -30 -10 -33 -14
-3 -3 -42 -29 -87 -56 -46 -28 -83 -53 -83 -57 0 -5 -5 -8 -11 -8 -6 0 -21 -8
-34 -17 -12 -10 -33 -25 -45 -33 -35 -23 -143 -113 -157 -130 -15 -18 -11
-177 6 -255 50 -238 201 -439 456 -610 126 -85 334 -189 341 -172 0 1 8 -4 16
-11 9 -7 26 -15 38 -17 32 -6 33 -10 16 -44 -64 -123 62 -220 357 -275 87 -17
112 -20 237 -33 122 -13 715 -7 715 7 0 2 67 8 105 11 8 0 22 3 30 6 8 3 30 7
48 10 106 13 268 72 317 117 54 50 67 125 27 165 -12 13 -10 17 19 32 19 10
40 18 48 19 17 0 242 111 259 127 7 7 18 13 23 13 6 0 25 11 43 25 18 14 36
25 40 25 32 0 308 275 325 323 2 7 7 14 11 17 13 10 80 156 95 210 21 73 28
137 28 240 -1 131 -14 163 -93 241 -89 88 -121 105 -375 200 -198 74 -386 157
-398 176 -4 7 -12 13 -16 13 -5 0 -24 15 -43 33 -33 31 -119 67 -173 73 -33 4
-78 15 -88 21 -6 4 -7 1 -2 -7 6 -9 4 -11 -5 -5 -7 4 -23 9 -34 10 -22 3 -81
12 -127 20 -85 15 -172 62 -244 132 -27 27 -65 59 -84 72 -33 24 -106 37 -116
21z m67 -133 c99 -96 208 -171 276 -189 52 -13 168 -35 227 -42 128 -15 190
-32 222 -60 65 -57 114 -87 221 -135 62 -28 116 -51 120 -52 9 -2 13 -3 177
-69 72 -29 136 -52 143 -53 6 0 12 -4 12 -9 0 -5 3 -7 8 -5 13 8 88 -36 135
-80 62 -57 77 -82 77 -123 0 -33 -4 -38 -53 -62 -49 -24 -166 -61 -227 -72
-14 -2 -25 -5 -25 -6 0 -1 -9 -3 -20 -5 -11 -1 -38 -5 -60 -9 -22 -3 -51 -8
-65 -11 -14 -3 -47 -8 -75 -11 -27 -3 -61 -7 -75 -9 -158 -20 -184 -22 -301
-30 -53 -3 -106 -7 -118 -10 -91 -17 -884 -25 -1176 -11 -147 7 -167 9 -290
21 -33 3 -87 7 -120 9 -33 2 -76 7 -95 10 -19 3 -55 8 -80 11 -43 4 -69 8
-157 20 -21 3 -55 8 -76 10 -20 2 -42 7 -47 10 -6 4 -24 8 -40 10 -63 8 -189
48 -251 80 l-29 16 32 27 c163 140 461 305 686 381 99 33 168 50 368 87 11 2
26 15 32 29 13 29 16 33 67 92 44 51 89 80 135 88 58 10 114 26 128 37 6 6 12
8 12 4 0 -6 54 21 200 99 36 19 68 35 72 35 4 0 17 -10 30 -23z"/>
<path d="M2618 1810 c-31 -24 -35 -73 -8 -100 41 -41 100 -13 100 46 0 37 -9
50 -42 63 -21 8 -31 6 -50 -9z"/>
<path d="M2434 1660 c-27 -11 -36 -34 -28 -75 7 -39 37 -56 76 -43 49 17 54
80 10 116 -18 14 -28 14 -58 2z"/>
<path d="M2737 1478 c-59 -46 -19 -140 52 -121 20 5 41 42 41 73 0 19 -44 60
-64 60 -7 0 -20 -6 -29 -12z"/>
</g>
</svg>
